<svg xmlns="http://www.w3.org/2000/svg" xmlns:xlink="http://www.w3.org/1999/xlink" viewBox="0 0 107.72 40.22"><defs><style>.cls-1{fill:url(#radial-gradient);}.cls-2{fill:url(#linear-gradient);}.cls-3{fill:url(#linear-gradient-2);}.cls-4{fill:#7d8185;}</style><radialGradient id="radial-gradient" cx="11.78" cy="20.11" r="30.71" gradientUnits="userSpaceOnUse"><stop offset="0" stop-color="#ec0006"/><stop offset="1" stop-color="#7a0000"/></radialGradient><linearGradient id="linear-gradient" x1="45.16" y1="-4.65" x2="3.44" y2="25.62" gradientUnits="userSpaceOnUse"><stop offset="0" stop-color="#7a0000"/><stop offset="0.26" stop-color="#a40002"/><stop offset="0.54" stop-color="#cb0004"/><stop offset="0.76" stop-color="#e30006"/><stop offset="0.9" stop-color="#ec0006"/></linearGradient><linearGradient id="linear-gradient-2" x1="24.74" y1="16.98" x2="20.98" y2="23.76" xlink:href="#linear-gradient"/></defs><g id="Capa_2" data-name="Capa 2"><g id="Layer_1" data-name="Layer 1"><polygon class="cls-1" points="9.39 0 0 5.42 0 34.8 9.39 40.22 9.39 0"/><polygon class="cls-2" points="34.83 25.54 34.83 14.69 9.39 0 0 5.42 34.83 25.54"/><polygon class="cls-3" points="0 34.8 9.39 40.22 34.83 25.54 25.44 20.11 0 34.8"/><path class="cls-4" d="M62.11,10.05c1.12,1.15,1.5,2.79,1.13,4.9a8.07,8.07,0,0,1-2.9,5.13,9.34,9.34,0,0,1-6,1.84H50.17l-1,5.67H45.48l3.4-19.28h7.9C59.21,8.31,61,8.89,62.11,10.05Zm-4,7.71a4,4,0,0,0,1.59-2.7,2.7,2.7,0,0,0-.65-2.64,4.39,4.39,0,0,0-3-.89H52l-1.26,7.14h4A5.72,5.72,0,0,0,58.13,17.76Z"/><path class="cls-4" d="M68.21,24.06a1,1,0,0,0,.92.42A4,4,0,0,0,70.67,24l-.12,3a7.07,7.07,0,0,1-2.9.71A3.18,3.18,0,0,1,65,26.56a4.3,4.3,0,0,1-.52-3.43l2.82-16h3.55L68.07,22.82A1.69,1.69,0,0,0,68.21,24.06Z"/><path class="cls-4" d="M89.76,12.86,87.17,27.59H83.29l.41-2.34a6.77,6.77,0,0,1-5.37,2.5,6.14,6.14,0,0,1-3.51-.95,5,5,0,0,1-2-2.67,7.93,7.93,0,0,1-.19-3.95,9.78,9.78,0,0,1,1.57-3.9,8.47,8.47,0,0,1,2.93-2.63A8,8,0,0,1,81,12.72a5.5,5.5,0,0,1,2.78.65,4.15,4.15,0,0,1,1.74,1.85l.42-2.36Zm-8.55,2.91a5.17,5.17,0,0,0-5,4.49c-.22,1.34,0,4.49,3.39,4.49C85.24,24.75,86.77,15.77,81.21,15.77Z"/><path class="cls-4" d="M107.72,12.86,105.4,26a8.32,8.32,0,0,1-1.59,3.7,8.06,8.06,0,0,1-3,2.48,9,9,0,0,1-4,.87,9.94,9.94,0,0,1-3.41-.59,9.38,9.38,0,0,1-2.77-1.56l1.61-2.73a9.87,9.87,0,0,0,2.51,1.34,7.31,7.31,0,0,0,2.44.45,4.57,4.57,0,0,0,3-1.06,4.76,4.76,0,0,0,1.59-3l.38-2.12a6.41,6.41,0,0,1-5.3,2.54,5,5,0,0,1-4-1.55,4.85,4.85,0,0,1-.85-4.15l1.38-7.82H97l-1.2,6.8a2.92,2.92,0,0,0,.44,2.42,2.72,2.72,0,0,0,2.25.88,4.3,4.3,0,0,0,3-1.21,5.75,5.75,0,0,0,1.58-3.22l1-5.67Z"/></g></g></svg>